<svg width="1600" height="980" viewBox="0 0 1600 980" fill="none" xmlns="http://www.w3.org/2000/svg">
  <defs>
    <linearGradient id="bg1" x1="100" y1="40" x2="1480" y2="930" gradientUnits="userSpaceOnUse">
      <stop stop-color="#EFF4F6"/>
      <stop offset="0.45" stop-color="#E8EEF7"/>
      <stop offset="1" stop-color="#D4DBE6"/>
    </linearGradient>
    <radialGradient id="pink1" cx="0" cy="0" r="1" gradientUnits="userSpaceOnUse" gradientTransform="translate(1280 180) rotate(149) scale(420 240)">
      <stop stop-color="#FFB6B6" stop-opacity="0.34"/>
      <stop offset="1" stop-color="#FFB6B6" stop-opacity="0"/>
    </radialGradient>
    <radialGradient id="blue1" cx="0" cy="0" r="1" gradientUnits="userSpaceOnUse" gradientTransform="translate(410 800) rotate(12) scale(520 280)">
      <stop stop-color="#76A8FF" stop-opacity="0.34"/>
      <stop offset="1" stop-color="#76A8FF" stop-opacity="0"/>
    </radialGradient>
    <linearGradient id="glass1" x1="60" y1="60" x2="1510" y2="900" gradientUnits="userSpaceOnUse">
      <stop stop-color="#FFFFFF" stop-opacity="0.74"/>
      <stop offset="1" stop-color="#FFFFFF" stop-opacity="0.28"/>
    </linearGradient>
  </defs>
  <rect width="1600" height="980" rx="32" fill="url(#bg1)"/>
  <rect width="1600" height="980" rx="32" fill="url(#pink1)"/>
  <rect width="1600" height="980" rx="32" fill="url(#blue1)"/>

  <rect x="42" y="42" width="1516" height="896" rx="42" fill="url(#glass1)"/>
  <rect x="70" y="70" width="258" height="748" rx="30" fill="#FFFFFF" fill-opacity="0.56"/>
  <text x="106" y="132" fill="#1A2230" font-size="34" font-family="Segoe UI, Arial" font-weight="700">LXMUSIC</text>

  <rect x="94" y="178" width="210" height="56" rx="18" fill="#17202D"/>
  <text x="140" y="214" fill="#FFFFFF" font-size="24" font-family="Segoe UI, Arial" font-weight="700">Listen now</text>
  <text x="140" y="272" fill="#556372" font-size="24" font-family="Segoe UI, Arial">Browse</text>
  <text x="140" y="322" fill="#556372" font-size="24" font-family="Segoe UI, Arial">Search</text>
  <text x="140" y="372" fill="#556372" font-size="24" font-family="Segoe UI, Arial">Charts</text>

  <rect x="94" y="470" width="210" height="230" rx="24" fill="#F8FAFD" fill-opacity="0.84"/>
  <text x="120" y="520" fill="#637081" font-size="18" font-family="Segoe UI, Arial" font-weight="700">LOCAL MUSIC</text>
  <text x="120" y="570" fill="#131C28" font-size="38" font-family="Segoe UI, Arial" font-weight="700">Library hub</text>
  <text x="120" y="610" fill="#667486" font-size="20" font-family="Segoe UI, Arial">Imported albums, folders and recent files</text>
  <rect x="120" y="650" width="158" height="20" rx="10" fill="#D8E1EC"/>
  <rect x="120" y="650" width="104" height="20" rx="10" fill="#6E90FF"/>

  <text x="364" y="126" fill="#3F4B5A" font-size="22" font-family="Segoe UI, Arial" font-weight="600">HYBRID GLASS</text>
  <text x="364" y="198" fill="#111927" font-size="62" font-family="Segoe UI, Arial" font-weight="700">Floating island playback</text>
  <text x="364" y="244" fill="#5E6A78" font-size="28" font-family="Segoe UI, Arial">Keep content immersive, move now playing into a bottom floating capsule</text>

  <rect x="364" y="286" width="824" height="248" rx="30" fill="#FFFFFF" fill-opacity="0.54"/>
  <rect x="1216" y="286" width="302" height="248" rx="30" fill="#16202D" fill-opacity="0.92"/>
  <rect x="364" y="564" width="1154" height="250" rx="30" fill="#FFFFFF" fill-opacity="0.40"/>

  <rect x="394" y="316" width="224" height="188" rx="24" fill="#A7BDD8"/>
  <text x="650" y="366" fill="#16202D" font-size="40" font-family="Segoe UI, Arial" font-weight="700">Front page with local library shelf</text>
  <text x="650" y="408" fill="#596676" font-size="22" font-family="Segoe UI, Arial">Artwork-forward hero, local music in left rail, bottom island always available</text>
  <rect x="650" y="448" width="188" height="50" rx="25" fill="#16202D"/>
  <text x="704" y="479" fill="#FFFFFF" font-size="23" font-family="Segoe UI, Arial" font-weight="600">Use this</text>

  <text x="1242" y="332" fill="#83909E" font-size="18" font-family="Segoe UI, Arial" font-weight="700">ISLAND PREVIEW</text>
  <rect x="1242" y="360" width="120" height="120" rx="18" fill="#324559"/>
  <rect x="1382" y="368" width="98" height="14" rx="7" fill="#435769"/>
  <rect x="1382" y="398" width="80" height="14" rx="7" fill="#2C3D4D"/>
  <circle cx="1400" cy="454" r="17" fill="#2C3D4D"/>
  <circle cx="1446" cy="454" r="26" fill="#FFFFFF"/>
  <circle cx="1492" cy="454" r="17" fill="#2C3D4D"/>

  <text x="392" y="620" fill="#42505F" font-size="22" font-family="Segoe UI, Arial" font-weight="600">CONTENT</text>
  <rect x="392" y="652" width="250" height="124" rx="22" fill="#F9FBFD" fill-opacity="0.88"/>
  <rect x="668" y="652" width="250" height="124" rx="22" fill="#F9FBFD" fill-opacity="0.88"/>
  <rect x="944" y="652" width="250" height="124" rx="22" fill="#F9FBFD" fill-opacity="0.88"/>
  <rect x="1220" y="652" width="250" height="124" rx="22" fill="#F9FBFD" fill-opacity="0.88"/>
  <text x="424" y="730" fill="#17202D" font-size="28" font-family="Segoe UI, Arial" font-weight="700">Recently Added</text>
  <text x="700" y="730" fill="#17202D" font-size="28" font-family="Segoe UI, Arial" font-weight="700">For You</text>
  <text x="976" y="730" fill="#17202D" font-size="28" font-family="Segoe UI, Arial" font-weight="700">Radio</text>
  <text x="1252" y="730" fill="#17202D" font-size="28" font-family="Segoe UI, Arial" font-weight="700">Playlists</text>

  <rect x="354" y="842" width="1166" height="80" rx="40" fill="#FFFFFF" fill-opacity="0.74"/>
  <rect x="374" y="856" width="54" height="54" rx="16" fill="#9FB8D6"/>
  <text x="448" y="878" fill="#142030" font-size="26" font-family="Segoe UI, Arial" font-weight="700">Starry Sea</text>
  <text x="448" y="906" fill="#627081" font-size="18" font-family="Segoe UI, Arial">Local Music • FLAC</text>
  <rect x="782" y="878" width="240" height="10" rx="5" fill="#D7DFEA"/>
  <rect x="782" y="878" width="110" height="10" rx="5" fill="#6E90FF"/>
  <circle cx="1088" cy="882" r="18" fill="#E5EBF3"/>
  <circle cx="1148" cy="882" r="26" fill="#17202D"/>
  <circle cx="1218" cy="882" r="18" fill="#E5EBF3"/>
  <circle cx="1320" cy="882" r="18" fill="#E5EBF3"/>
  <circle cx="1374" cy="882" r="18" fill="#E5EBF3"/>

  <text x="330" y="950" fill="#5B6675" font-size="24" font-family="Segoe UI, Arial">Floating Island A  Hybrid Day</text>
</svg>
