<svg width="1600" height="980" viewBox="0 0 1600 980" fill="none" xmlns="http://www.w3.org/2000/svg">
  <defs>
    <linearGradient id="bg2" x1="140" y1="60" x2="1460" y2="910" gradientUnits="userSpaceOnUse">
      <stop stop-color="#111214"/>
      <stop offset="1" stop-color="#08090B"/>
    </linearGradient>
    <radialGradient id="green2" cx="0" cy="0" r="1" gradientUnits="userSpaceOnUse" gradientTransform="translate(1310 160) rotate(148) scale(460 260)">
      <stop stop-color="#1ED760" stop-opacity="0.36"/>
      <stop offset="1" stop-color="#1ED760" stop-opacity="0"/>
    </radialGradient>
    <radialGradient id="blue2" cx="0" cy="0" r="1" gradientUnits="userSpaceOnUse" gradientTransform="translate(340 830) rotate(14) scale(580 300)">
      <stop stop-color="#416DFF" stop-opacity="0.28"/>
      <stop offset="1" stop-color="#416DFF" stop-opacity="0"/>
    </radialGradient>
  </defs>
  <rect width="1600" height="980" rx="32" fill="url(#bg2)"/>
  <rect width="1600" height="980" rx="32" fill="url(#green2)"/>
  <rect width="1600" height="980" rx="32" fill="url(#blue2)"/>

  <rect x="40" y="40" width="1520" height="900" rx="40" fill="#0C0F13" fill-opacity="0.78"/>
  <rect x="68" y="68" width="252" height="752" rx="30" fill="#000000" fill-opacity="0.42"/>
  <text x="104" y="130" fill="#FFFFFF" font-size="34" font-family="Segoe UI, Arial" font-weight="700">LXMUSIC</text>

  <rect x="92" y="178" width="208" height="56" rx="18" fill="#FFFFFF"/>
  <text x="142" y="214" fill="#0B1016" font-size="24" font-family="Segoe UI, Arial" font-weight="700">Listen now</text>
  <text x="142" y="272" fill="#A3ADB8" font-size="24" font-family="Segoe UI, Arial">Browse</text>
  <text x="142" y="322" fill="#A3ADB8" font-size="24" font-family="Segoe UI, Arial">Search</text>
  <text x="142" y="372" fill="#A3ADB8" font-size="24" font-family="Segoe UI, Arial">Charts</text>

  <rect x="92" y="470" width="208" height="232" rx="24" fill="#161A20"/>
  <text x="118" y="520" fill="#8B96A3" font-size="18" font-family="Segoe UI, Arial" font-weight="700">LOCAL MUSIC</text>
  <text x="118" y="570" fill="#FFFFFF" font-size="38" font-family="Segoe UI, Arial" font-weight="700">Offline vault</text>
  <text x="118" y="610" fill="#9AA5B2" font-size="20" font-family="Segoe UI, Arial">Folders, imports and queues</text>
  <rect x="118" y="650" width="156" height="20" rx="10" fill="#2A313A"/>
  <rect x="118" y="650" width="112" height="20" rx="10" fill="#1ED760"/>

  <text x="360" y="126" fill="#9AA5B1" font-size="22" font-family="Segoe UI, Arial" font-weight="600">HYBRID DARK</text>
  <text x="360" y="198" fill="#FFFFFF" font-size="62" font-family="Segoe UI, Arial" font-weight="700">Floating island playback</text>
  <text x="360" y="244" fill="#A9B3BE" font-size="28" font-family="Segoe UI, Arial">Concept 3 structure, night mode colored like concept 2</text>

  <rect x="360" y="286" width="824" height="248" rx="30" fill="#151A20"/>
  <rect x="1212" y="286" width="308" height="248" rx="30" fill="#101419"/>
  <rect x="360" y="564" width="1160" height="252" rx="30" fill="#11161B"/>

  <rect x="392" y="316" width="220" height="188" rx="24" fill="#2A3D54"/>
  <text x="646" y="366" fill="#FFFFFF" font-size="40" font-family="Segoe UI, Arial" font-weight="700">Immersive shell, denser content</text>
  <text x="646" y="408" fill="#A2ADB9" font-size="22" font-family="Segoe UI, Arial">Bottom island keeps playback persistent while pages stay clean</text>
  <rect x="646" y="448" width="188" height="50" rx="25" fill="#1ED760"/>
  <text x="698" y="479" fill="#09120B" font-size="23" font-family="Segoe UI, Arial" font-weight="700">Use this</text>

  <text x="1242" y="332" fill="#7B8793" font-size="18" font-family="Segoe UI, Arial" font-weight="700">ISLAND PREVIEW</text>
  <rect x="1242" y="360" width="120" height="120" rx="18" fill="#24303D"/>
  <rect x="1382" y="368" width="98" height="14" rx="7" fill="#32404D"/>
  <rect x="1382" y="398" width="78" height="14" rx="7" fill="#27323D"/>
  <circle cx="1400" cy="454" r="17" fill="#27323D"/>
  <circle cx="1448" cy="454" r="26" fill="#1ED760"/>
  <circle cx="1494" cy="454" r="17" fill="#27323D"/>

  <text x="392" y="620" fill="#8E99A5" font-size="22" font-family="Segoe UI, Arial" font-weight="600">CONTENT</text>
  <rect x="392" y="652" width="252" height="126" rx="22" fill="#181D23"/>
  <rect x="670" y="652" width="252" height="126" rx="22" fill="#181D23"/>
  <rect x="948" y="652" width="252" height="126" rx="22" fill="#181D23"/>
  <rect x="1226" y="652" width="252" height="126" rx="22" fill="#181D23"/>
  <text x="424" y="732" fill="#FFFFFF" font-size="28" font-family="Segoe UI, Arial" font-weight="700">Recently Added</text>
  <text x="702" y="732" fill="#FFFFFF" font-size="28" font-family="Segoe UI, Arial" font-weight="700">For You</text>
  <text x="980" y="732" fill="#FFFFFF" font-size="28" font-family="Segoe UI, Arial" font-weight="700">Charts</text>
  <text x="1258" y="732" fill="#FFFFFF" font-size="28" font-family="Segoe UI, Arial" font-weight="700">Local Albums</text>

  <rect x="356" y="842" width="1168" height="82" rx="41" fill="#0E1319"/>
  <rect x="374" y="856" width="56" height="56" rx="16" fill="#33485F"/>
  <text x="448" y="880" fill="#FFFFFF" font-size="26" font-family="Segoe UI, Arial" font-weight="700">Starry Sea</text>
  <text x="448" y="906" fill="#91A0AF" font-size="18" font-family="Segoe UI, Arial">Local Music • FLAC</text>
  <rect x="780" y="878" width="250" height="10" rx="5" fill="#232B34"/>
  <rect x="780" y="878" width="126" height="10" rx="5" fill="#1ED760"/>
  <circle cx="1088" cy="882" r="18" fill="#202A33"/>
  <circle cx="1148" cy="882" r="26" fill="#1ED760"/>
  <circle cx="1218" cy="882" r="18" fill="#202A33"/>
  <circle cx="1320" cy="882" r="18" fill="#202A33"/>
  <circle cx="1374" cy="882" r="18" fill="#202A33"/>

  <text x="330" y="950" fill="#7C8793" font-size="24" font-family="Segoe UI, Arial">Floating Island B  Hybrid Night</text>
</svg>
