<svg width="1600" height="980" viewBox="0 0 1600 980" fill="none" xmlns="http://www.w3.org/2000/svg">
  <defs>
    <linearGradient id="bgC" x1="120" y1="40" x2="1450" y2="930" gradientUnits="userSpaceOnUse">
      <stop stop-color="#EFF2F6"/>
      <stop offset="0.4" stop-color="#E8EEF6"/>
      <stop offset="1" stop-color="#CFD6E2"/>
    </linearGradient>
    <radialGradient id="pinkC" cx="0" cy="0" r="1" gradientUnits="userSpaceOnUse" gradientTransform="translate(1310 160) rotate(157) scale(390 230)">
      <stop stop-color="#FF9F9F" stop-opacity="0.34"/>
      <stop offset="1" stop-color="#FF9F9F" stop-opacity="0"/>
    </radialGradient>
    <radialGradient id="blueC" cx="0" cy="0" r="1" gradientUnits="userSpaceOnUse" gradientTransform="translate(430 820) rotate(22) scale(560 300)">
      <stop stop-color="#6AA2FF" stop-opacity="0.34"/>
      <stop offset="1" stop-color="#6AA2FF" stop-opacity="0"/>
    </radialGradient>
    <linearGradient id="glassC" x1="70" y1="90" x2="1500" y2="920" gradientUnits="userSpaceOnUse">
      <stop stop-color="#FFFFFF" stop-opacity="0.75"/>
      <stop offset="1" stop-color="#FFFFFF" stop-opacity="0.25"/>
    </linearGradient>
  </defs>
  <rect width="1600" height="980" rx="32" fill="url(#bgC)"/>
  <rect width="1600" height="980" rx="32" fill="url(#pinkC)"/>
  <rect width="1600" height="980" rx="32" fill="url(#blueC)"/>

  <rect x="42" y="42" width="1516" height="896" rx="42" fill="url(#glassC)"/>
  <rect x="70" y="70" width="250" height="840" rx="30" fill="#FFFFFF" fill-opacity="0.52"/>
  <text x="104" y="132" fill="#1A2230" font-size="34" font-family="Segoe UI, Arial" font-weight="700">LXMUSIC</text>
  <rect x="94" y="178" width="202" height="56" rx="18" fill="#1B2430"/>
  <text x="136" y="214" fill="#FFFFFF" font-size="24" font-family="Segoe UI, Arial" font-weight="700">Listen now</text>
  <text x="136" y="272" fill="#52606E" font-size="24" font-family="Segoe UI, Arial">Browse</text>
  <text x="136" y="322" fill="#52606E" font-size="24" font-family="Segoe UI, Arial">Search</text>
  <text x="136" y="372" fill="#52606E" font-size="24" font-family="Segoe UI, Arial">Charts</text>

  <rect x="94" y="474" width="202" height="250" rx="24" fill="#F7F9FC" fill-opacity="0.84"/>
  <text x="118" y="522" fill="#5A6674" font-size="18" font-family="Segoe UI, Arial" font-weight="700">LOCAL MUSIC</text>
  <text x="118" y="572" fill="#141C28" font-size="40" font-family="Segoe UI, Arial" font-weight="700">Ready offline</text>
  <text x="118" y="616" fill="#647181" font-size="20" font-family="Segoe UI, Arial">Folders, cover art, lyrics, queue</text>
  <rect x="118" y="652" width="152" height="20" rx="10" fill="#DCE4EE"/>
  <rect x="118" y="652" width="102" height="20" rx="10" fill="#6A8EFF"/>
  <text x="118" y="704" fill="#141C28" font-size="24" font-family="Segoe UI, Arial" font-weight="700">Open library</text>

  <text x="360" y="128" fill="#334152" font-size="22" font-family="Segoe UI, Arial" font-weight="600">HYBRID DESIGN</text>
  <text x="360" y="202" fill="#111927" font-size="66" font-family="Segoe UI, Arial" font-weight="700">Apple softness, Spotify structure</text>
  <text x="360" y="248" fill="#5E6A78" font-size="28" font-family="Segoe UI, Arial">Editorial hero + dense content rows + clearer local library surfacing</text>

  <rect x="360" y="288" width="830" height="262" rx="30" fill="#FFFFFF" fill-opacity="0.52"/>
  <rect x="1216" y="288" width="302" height="262" rx="30" fill="#151C27" fill-opacity="0.92"/>
  <rect x="360" y="580" width="1158" height="300" rx="30" fill="#FFFFFF" fill-opacity="0.44"/>

  <rect x="392" y="320" width="220" height="198" rx="24" fill="#A2BBD8"/>
  <text x="646" y="370" fill="#16202D" font-size="42" font-family="Segoe UI, Arial" font-weight="700">New immersive shell</text>
  <text x="646" y="412" fill="#5B6674" font-size="22" font-family="Segoe UI, Arial">Bigger artwork, richer navigation, local music up front</text>
  <rect x="646" y="456" width="180" height="52" rx="26" fill="#17202D"/>
  <text x="698" y="489" fill="#FFFFFF" font-size="24" font-family="Segoe UI, Arial" font-weight="600">Choose this</text>

  <text x="1244" y="334" fill="#7F8B98" font-size="18" font-family="Segoe UI, Arial" font-weight="700">NOW PLAYING</text>
  <rect x="1244" y="360" width="122" height="122" rx="20" fill="#2E3F52"/>
  <rect x="1388" y="366" width="96" height="16" rx="8" fill="#364656"/>
  <rect x="1388" y="398" width="82" height="14" rx="7" fill="#2D3C4B"/>
  <circle cx="1404" cy="462" r="18" fill="#2D3C4B"/>
  <circle cx="1452" cy="462" r="28" fill="#FFFFFF"/>
  <circle cx="1500" cy="462" r="18" fill="#2D3C4B"/>

  <text x="390" y="632" fill="#3F4C5B" font-size="22" font-family="Segoe UI, Arial" font-weight="600">CONTENT ROWS</text>
  <rect x="390" y="664" width="250" height="170" rx="24" fill="#F9FBFD" fill-opacity="0.86"/>
  <rect x="666" y="664" width="250" height="170" rx="24" fill="#F9FBFD" fill-opacity="0.86"/>
  <rect x="942" y="664" width="250" height="170" rx="24" fill="#F9FBFD" fill-opacity="0.86"/>
  <rect x="1218" y="664" width="250" height="170" rx="24" fill="#F9FBFD" fill-opacity="0.86"/>
  <text x="420" y="790" fill="#16202D" font-size="28" font-family="Segoe UI, Arial" font-weight="700">Local albums</text>
  <text x="696" y="790" fill="#16202D" font-size="28" font-family="Segoe UI, Arial" font-weight="700">Fresh picks</text>
  <text x="972" y="790" fill="#16202D" font-size="28" font-family="Segoe UI, Arial" font-weight="700">Playlists</text>
  <text x="1248" y="790" fill="#16202D" font-size="28" font-family="Segoe UI, Arial" font-weight="700">Radio + charts</text>

  <text x="330" y="948" fill="#5B6675" font-size="24" font-family="Segoe UI, Arial">Concept C  Hybrid Glass</text>
</svg>
